# xmcd
#
# Track frame offsets: 
#        150
#        17715
#        43025
#
# Disc length: 813 seconds
#
# Revision: 4
# Processed by: cddbd v1.5.2PL0 Copyright (c) Steve Scherf et al.
# Submitted via: ExactAudioCopy v0.95b4
#
DISCID=1c032b03
DTITLE=Nina Hagen - Der Wind hat mir ein Lied erzählt [CD Single)
DYEAR=2000
DGENRE=Pop
TTITLE0=Der Wind hat mir ein Lied erzählt (Radio Edit)
TTITLE1=Der Wind hat mir ein Lied erzählt (Long Version)
TTITLE2=Der Wind hat mir ein Lied erzählt (Alternative Version)
EXTD=ID3G: 13
EXTT0=
EXTT1=
EXTT2=
PLAYORDER=
